<svg xmlns="http://www.w3.org/2000/svg" width="64" height="64" viewBox="0 0 64 64">
  <defs><linearGradient id="g" x1="0" y1="0" x2="1" y2="1"><stop stop-color="#ff7bb8"/><stop offset="1" stop-color="#ffb3d6"/></linearGradient></defs>
  <g fill="url(#g)" stroke="#e959a5" stroke-width="2">
    <circle cx="32" cy="32" r="7"/>
    <path d="M25 32c-7-7-14-10-18-6s-1 11 6 18 11 7 15 3l-3-3c-3 2-7 1-11-3s-5-8-3-11 6-1 11 3l3-1z"/>
    <path d="M39 32c7-7 14-10 18-6s1 11-6 18-11 7-15 3l3-3c3 2 7 1 11-3s5-8 3-11-6-1-11 3l-3-1z"/>
  </g>
</svg>